<?xml version="1.0" encoding="UTF-8" standalone="no"?>
<!-- Created with Inkscape (http://www.inkscape.org/) -->

<svg
   xmlns:dc="http://purl.org/dc/elements/1.1/"
   xmlns:cc="http://creativecommons.org/ns#"
   xmlns:rdf="http://www.w3.org/1999/02/22-rdf-syntax-ns#"
   xmlns:svg="http://www.w3.org/2000/svg"
   xmlns="http://www.w3.org/2000/svg"
   xmlns:sodipodi="http://sodipodi.sourceforge.net/DTD/sodipodi-0.dtd"
   xmlns:inkscape="http://www.inkscape.org/namespaces/inkscape"
   version="1.1"
   id="svg2"
   xml:space="preserve"
   width="540.50848"
   height="306.6102"
   viewBox="0 0 540.50848 306.6102"
   sodipodi:docname="read_ttree.svg"
   inkscape:version="0.92.5 (2060ec1f9f, 2020-04-08)"><metadata
     id="metadata8"><rdf:RDF><cc:Work
         rdf:about=""><dc:format>image/svg+xml</dc:format><dc:type
           rdf:resource="http://purl.org/dc/dcmitype/StillImage" /><dc:title></dc:title></cc:Work></rdf:RDF></metadata><defs
     id="defs6" /><sodipodi:namedview
     pagecolor="#ffffff"
     bordercolor="#666666"
     borderopacity="1"
     objecttolerance="10"
     gridtolerance="10"
     guidetolerance="10"
     inkscape:pageopacity="0"
     inkscape:pageshadow="2"
     inkscape:window-width="1509"
     inkscape:window-height="926"
     id="namedview4"
     showgrid="false"
     inkscape:zoom="1.7582546"
     inkscape:cx="279.22262"
     inkscape:cy="144.66512"
     inkscape:window-x="259"
     inkscape:window-y="113"
     inkscape:window-maximized="0"
     inkscape:current-layer="g12" /><g
     id="g10"
     inkscape:groupmode="layer"
     inkscape:label="read_ttree"
     transform="matrix(1.3333333,0,0,1.3333333,0,8.3319219e-6)"><g
       id="g12"><path
         d="M 0,0 H 405.383 V 229.957 H 0 Z"
         style="fill:#ffffff;fill-opacity:1;fill-rule:evenodd;stroke:none"
         id="path14"
         inkscape:connector-curvature="0" /><g
         id="g16"><path
           d="m 46.395,198.543 h 6.75 m 347.851,0 h -6.75"
           style="fill:none;stroke:#000000;stroke-width:0.75;stroke-linecap:butt;stroke-linejoin:miter;stroke-miterlimit:4;stroke-dasharray:none;stroke-opacity:1"
           id="path18"
           inkscape:connector-curvature="0" /></g><text
         transform="translate(26.264527,201.46781)"
         style="font-variant:normal;font-weight:normal;font-size:10px;font-family:'Liberation Sans';-inkscape-font-specification:LiberationSans;writing-mode:lr-tb;fill:#000000;fill-opacity:1;fill-rule:nonzero;stroke:none"
         id="text22"><tspan
           x="0 5.5599999 8.3299999"
           y="0"
           sodipodi:role="line"
           id="tspan20">0.1</tspan></text>
<g
         id="g24"><path
           d="m 46.395,185.043 h 3.375 m 351.226,0 h -3.375 M 46.395,177.168 h 3.375 m 351.226,0 h -3.375 M 46.395,171.617 h 3.375 m 351.226,0 h -3.375 M 46.395,167.27 h 3.375 m 351.226,0 h -3.375 M 46.395,163.742 h 3.375 m 351.226,0 h -3.375 m -351.226,-3 h 3.375 m 351.226,0 h -3.375 M 46.395,158.117 h 3.375 m 351.226,0 h -3.375 m -351.226,-2.25 h 3.375 m 351.226,0 h -3.375 M 46.395,153.844 h 6.75 m 347.851,0 h -6.75"
           style="fill:none;stroke:#000000;stroke-width:0.75;stroke-linecap:butt;stroke-linejoin:miter;stroke-miterlimit:4;stroke-dasharray:none;stroke-opacity:1"
           id="path26"
           inkscape:connector-curvature="0" /></g><text
         transform="translate(34.60437,156.76781)"
         style="font-variant:normal;font-weight:normal;font-size:10px;font-family:'Liberation Sans';-inkscape-font-specification:LiberationSans;writing-mode:lr-tb;fill:#000000;fill-opacity:1;fill-rule:nonzero;stroke:none"
         id="text30"><tspan
           x="0"
           y="0"
           id="tspan28">1</tspan></text>
<g
         id="g32"><path
           d="m 46.395,140.344 h 3.375 m 351.226,0 h -3.375 M 46.395,132.469 h 3.375 m 351.226,0 h -3.375 M 46.395,126.918 h 3.375 m 351.226,0 h -3.375 M 46.395,122.566 h 3.375 m 351.226,0 h -3.375 M 46.395,119.043 h 3.375 m 351.226,0 h -3.375 m -351.226,-3 h 3.375 m 351.226,0 h -3.375 M 46.395,113.418 h 3.375 m 351.226,0 h -3.375 m -351.226,-2.25 h 3.375 m 351.226,0 h -3.375 M 46.395,109.066 h 6.75 m 347.851,0 h -6.75"
           style="fill:none;stroke:#000000;stroke-width:0.75;stroke-linecap:butt;stroke-linejoin:miter;stroke-miterlimit:4;stroke-dasharray:none;stroke-opacity:1"
           id="path34"
           inkscape:connector-curvature="0" /></g><text
         transform="translate(29.037964,111.9928)"
         style="font-variant:normal;font-weight:normal;font-size:10px;font-family:'Liberation Sans';-inkscape-font-specification:LiberationSans;writing-mode:lr-tb;fill:#000000;fill-opacity:1;fill-rule:nonzero;stroke:none"
         id="text38"><tspan
           x="0 5.5599999"
           y="0"
           sodipodi:role="line"
           id="tspan36">10</tspan></text>
<g
         id="g40"><path
           d="m 46.395,95.645 h 3.375 m 351.226,0 h -3.375 M 46.395,87.77 h 3.375 m 351.226,0 h -3.375 M 46.395,82.145 h 3.375 m 351.226,0 h -3.375 M 46.395,77.793 h 3.375 m 351.226,0 h -3.375 M 46.395,74.27 h 3.375 m 351.226,0 h -3.375 m -351.226,-3 h 3.375 m 351.226,0 h -3.375 M 46.395,68.719 h 3.375 m 351.226,0 h -3.375 M 46.395,66.395 h 3.375 m 351.226,0 h -3.375 M 46.395,64.367 h 6.75 m 347.851,0 h -6.75"
           style="fill:none;stroke:#000000;stroke-width:0.75;stroke-linecap:butt;stroke-linejoin:miter;stroke-miterlimit:4;stroke-dasharray:none;stroke-opacity:1"
           id="path42"
           inkscape:connector-curvature="0" /></g><text
         transform="translate(23.471558,67.292799)"
         style="font-variant:normal;font-weight:normal;font-size:10px;font-family:'Liberation Sans';-inkscape-font-specification:LiberationSans;writing-mode:lr-tb;fill:#000000;fill-opacity:1;fill-rule:nonzero;stroke:none"
         id="text46"><tspan
           x="0 5.5599999 11.12"
           y="0"
           sodipodi:role="line"
           id="tspan44">100</tspan></text>
<g
         id="g48"><path
           d="m 46.395,50.867 h 3.375 m 351.226,0 h -3.375 M 46.395,42.992 h 3.375 m 351.226,0 h -3.375 M 46.395,37.441 h 3.375 m 351.226,0 h -3.375 M 46.395,33.094 h 3.375 m 351.226,0 h -3.375 M 46.395,29.566 h 3.375 m 351.226,0 h -3.375 m -351.226,-3 h 3.375 m 351.226,0 h -3.375 M 46.395,23.941 h 3.375 m 351.226,0 h -3.375 M 46.395,21.691 h 3.375 m 351.226,0 h -3.375 M 46.395,19.668 h 6.75 m 347.851,0 h -6.75"
           style="fill:none;stroke:#000000;stroke-width:0.75;stroke-linecap:butt;stroke-linejoin:miter;stroke-miterlimit:4;stroke-dasharray:none;stroke-opacity:1"
           id="path50"
           inkscape:connector-curvature="0" /></g><text
         transform="translate(17.905152,22.592794)"
         style="font-variant:normal;font-weight:normal;font-size:10px;font-family:'Liberation Sans';-inkscape-font-specification:LiberationSans;writing-mode:lr-tb;fill:#000000;fill-opacity:1;fill-rule:nonzero;stroke:none"
         id="text54"><tspan
           x="0 5.5599999 11.12 16.68"
           y="0"
           sodipodi:role="line"
           id="tspan52">1000</tspan></text>
<g
         id="g56"><path
           d="m 46.395,6.168 h 3.375 m 351.226,0 h -3.375 M 46.395,198.543 v -6.75 m 0,-185.625 v 6.75"
           style="fill:none;stroke:#000000;stroke-width:0.75;stroke-linecap:butt;stroke-linejoin:miter;stroke-miterlimit:4;stroke-dasharray:none;stroke-opacity:1"
           id="path58"
           inkscape:connector-curvature="0" /></g><g
         id="g60"><path
           d="m 79.473,198.543 v -6.75 m 0,-185.625 v 6.75"
           style="fill:none;stroke:#000000;stroke-width:0.75;stroke-linecap:butt;stroke-linejoin:miter;stroke-miterlimit:4;stroke-dasharray:none;stroke-opacity:1"
           id="path62"
           inkscape:connector-curvature="0" /></g><g
         id="g64"><path
           d="m 175.621,198.543 v -6.75 m 0,-185.625 v 6.75"
           style="fill:none;stroke:#000000;stroke-width:0.75;stroke-linecap:butt;stroke-linejoin:miter;stroke-miterlimit:4;stroke-dasharray:none;stroke-opacity:1"
           id="path66"
           inkscape:connector-curvature="0" /></g><g
         id="g68"><path
           d="m 271.77,198.543 v -6.75 m 0,-185.625 v 6.75"
           style="fill:none;stroke:#000000;stroke-width:0.75;stroke-linecap:butt;stroke-linejoin:miter;stroke-miterlimit:4;stroke-dasharray:none;stroke-opacity:1"
           id="path70"
           inkscape:connector-curvature="0" /></g><g
         id="g72"><path
           d="m 367.922,198.543 v -6.75 m 0,-185.625 v 6.75"
           style="fill:none;stroke:#000000;stroke-width:0.75;stroke-linecap:butt;stroke-linejoin:miter;stroke-miterlimit:4;stroke-dasharray:none;stroke-opacity:1"
           id="path74"
           inkscape:connector-curvature="0" /></g><g
         id="g76"><path
           d="m 400.996,198.543 v -6.75 m 0,-185.625 v 6.75"
           style="fill:none;stroke:#000000;stroke-width:0.75;stroke-linecap:butt;stroke-linejoin:miter;stroke-miterlimit:4;stroke-dasharray:none;stroke-opacity:1"
           id="path78"
           inkscape:connector-curvature="0" /></g><g
         id="g80"><path
           d="M 46.395,6.168 H 400.997 V 198.543 H 46.395 Z"
           style="fill:none;stroke:#000000;stroke-width:0.75;stroke-linecap:butt;stroke-linejoin:miter;stroke-miterlimit:4;stroke-dasharray:none;stroke-opacity:1"
           id="path82"
           inkscape:connector-curvature="0" /></g><g
         id="g84"><path
           d="m 79.473,31.594 96.148,-16.426 96.149,6.449 96.152,13.5"
           style="fill:none;stroke:#aa00d4;stroke-width:1.5;stroke-linecap:butt;stroke-linejoin:miter;stroke-miterlimit:4;stroke-dasharray:none;stroke-opacity:1"
           id="path86"
           inkscape:connector-curvature="0" /></g><g
         id="g88"><path
           d="m 79.473,48.469 96.148,42.898 96.149,86.403 96.152,-0.676"
           style="fill:none;stroke:#008000;stroke-width:1.5;stroke-linecap:butt;stroke-linejoin:miter;stroke-miterlimit:4;stroke-dasharray:none;stroke-opacity:1"
           id="path90"
           inkscape:connector-curvature="0" /></g><g
         id="g92"><path
           d="m 79.473,48.469 96.148,25.273 96.149,4.125 96.152,17.176"
           style="fill:none;stroke:#ff6600;stroke-width:1.5;stroke-linecap:butt;stroke-linejoin:miter;stroke-miterlimit:4;stroke-dasharray:none;stroke-opacity:1"
           id="path94"
           inkscape:connector-curvature="0" /></g><g
         id="g96"><path
           d="m 79.473,161.418 96.148,6.523 96.149,0.602 96.152,0.227"
           style="fill:none;stroke:#808080;stroke-width:0.75;stroke-linecap:butt;stroke-linejoin:miter;stroke-miterlimit:4;stroke-dasharray:0.75, 0.75;stroke-dashoffset:0;stroke-opacity:1"
           id="path98"
           inkscape:connector-curvature="0" /></g><g
         id="g100"><path
           d="m 79.473,128.117 96.148,-24.898 96.149,-7.5 96.152,0.449"
           style="fill:none;stroke:#808080;stroke-width:0.75;stroke-linecap:butt;stroke-linejoin:miter;stroke-miterlimit:4;stroke-dasharray:0.75, 0.75;stroke-dashoffset:0;stroke-opacity:1"
           id="path102"
           inkscape:connector-curvature="0" /></g><g
         id="g104"><path
           d="m 79.473,166.145 96.148,5.324 96.149,1.574 96.152,-0.301"
           style="fill:none;stroke:#808080;stroke-width:0.75;stroke-linecap:butt;stroke-linejoin:miter;stroke-miterlimit:4;stroke-dasharray:0.75, 0.75;stroke-dashoffset:0;stroke-opacity:1"
           id="path106"
           inkscape:connector-curvature="0" /></g><g
         id="g108"><path
           d="m 79.473,102.02 96.148,3 96.149,2.097 96.152,1.051"
           style="fill:none;stroke:#808080;stroke-width:0.75;stroke-linecap:butt;stroke-linejoin:miter;stroke-miterlimit:4;stroke-dasharray:0.75, 0.75;stroke-dashoffset:0;stroke-opacity:1"
           id="path110"
           inkscape:connector-curvature="0" /></g><g
         id="g112"><path
           d="M 46.395,6.168 H 400.997 V 198.543 H 46.395 Z"
           style="fill:none;stroke:#000000;stroke-width:0.75;stroke-linecap:butt;stroke-linejoin:miter;stroke-miterlimit:4;stroke-dasharray:none;stroke-opacity:1"
           id="path114"
           inkscape:connector-curvature="0" /></g><text
         transform="translate(72.400438,214.96781)"
         style="font-variant:normal;font-weight:normal;font-size:10px;font-family:'Liberation Sans';-inkscape-font-specification:LiberationSans;writing-mode:lr-tb;fill:#000000;fill-opacity:1;fill-rule:nonzero;stroke:none"
         id="text132"><tspan
           x="0 2.77 4.9899998 10.55"
           y="0"
           sodipodi:role="line"
           id="tspan116">flat</tspan><tspan
           x="-9.1796904 -1.95969 3.6003101 11.93031 17.490311"
           y="11.05964"
           sodipodi:role="line"
           id="tspan118">Numpy</tspan><tspan
           x="87.790627 90.010628 95.570633 101.13063 106.69063 112.25063"
           y="0"
           sodipodi:role="line"
           id="tspan120">jagged</tspan><tspan
           x="91.413681 96.973679 100.30368 103.63368 109.22368"
           y="11.05964"
           sodipodi:role="line"
           id="tspan122">array</tspan><tspan
           x="184.22385 189.78384 195.34384 200.90384 206.46384 208.68384"
           y="0"
           sodipodi:role="line"
           id="tspan124">doubly</tspan><tspan
           x="183.94064 186.16064 191.72064 197.28064 202.84064 208.40063"
           y="11.05964"
           sodipodi:role="line"
           id="tspan126">jagged</tspan><tspan
           x="284.55353 287.32355 290.65353 292.87354 298.43353 300.65353"
           y="0"
           sodipodi:role="line"
           id="tspan128">triply</tspan><tspan
           x="280.09064 282.31064 287.87064 293.43063 298.99066 304.55066"
           y="11.05964"
           sodipodi:role="line"
           id="tspan130">jagged</tspan></text>
<text
         transform="rotate(3.8822955,-2287.08,1235.6333)"
         style="font-variant:normal;font-weight:normal;font-size:9px;font-family:'Liberation Sans';-inkscape-font-specification:LiberationSans;writing-mode:lr-tb;fill:#808080;fill-opacity:1;fill-rule:nonzero;stroke:none"
         id="text136"><tspan
           x="0 2.493 5.4899998 10.493999 17.990999 19.989 22.482 27.486 30.509998 33.507 38.510998 43.010998 48.014999 53.045998 55.043999 58.041 60.533997 62.531998 67.535995 70.028999 75.032997 77.030998 82.061996 84.059998"
           y="0"
           sodipodi:role="line"
           id="tspan134">fromiter(pyobj) in old A</tspan></text>
<text
         transform="rotate(3.5756545,-2539.6976,2775.7555)"
         style="font-variant:normal;font-weight:normal;font-size:9px;font-family:'Liberation Sans';-inkscape-font-specification:LiberationSans;writing-mode:lr-tb;fill:#808080;fill-opacity:1;fill-rule:nonzero;stroke:none"
         id="text140"><tspan
           x="0"
           y="0"
           id="tspan138">w</tspan></text>
<text
         transform="rotate(0.35753561,-26223.329,28071.832)"
         style="font-variant:normal;font-weight:normal;font-size:9px;font-family:'Liberation Sans';-inkscape-font-specification:LiberationSans;writing-mode:lr-tb;fill:#808080;fill-opacity:1;fill-rule:nonzero;stroke:none"
         id="text144"><tspan
           x="0 4.5 10.998 16.002001 18.999001 24.003"
           y="0"
           sodipodi:role="line"
           id="tspan142">kward </tspan></text>
<text
         transform="rotate(3.1699272,-3112.3303,1503.7355)"
         style="font-variant:normal;font-weight:normal;font-size:9px;font-family:'Liberation Sans';-inkscape-font-specification:LiberationSans;writing-mode:lr-tb;fill:#808080;fill-opacity:1;fill-rule:nonzero;stroke:none"
         id="text148"><tspan
           x="0 2.4929998 5.4899998 10.493999 17.990999 19.988998 22.481998 27.485998 30.509998 33.507 38.007 44.000999 50.993999 57.491997 60.515999 63.008999 65.006996 70.010994 72.503998 77.507996 79.505997 84.509995 86.525993"
           y="0"
           sodipodi:role="line"
           id="tspan146">fromiter(JSON) in old A</tspan></text>
<text
         transform="rotate(2.1077377,-4795.6399,4729.2181)"
         style="font-variant:normal;font-weight:normal;font-size:9px;font-family:'Liberation Sans';-inkscape-font-specification:LiberationSans;writing-mode:lr-tb;fill:#808080;fill-opacity:1;fill-rule:nonzero;stroke:none"
         id="text152"><tspan
           x="0"
           y="0"
           id="tspan150">w</tspan></text>
<text
         transform="rotate(0.93845768,-10885.813,10907.691)"
         style="font-variant:normal;font-weight:normal;font-size:9px;font-family:'Liberation Sans';-inkscape-font-specification:LiberationSans;writing-mode:lr-tb;fill:#808080;fill-opacity:1;fill-rule:nonzero;stroke:none"
         id="text156"><tspan
           x="0 4.5 10.998 16.002001 18.999001 24.003"
           y="0"
           sodipodi:role="line"
           id="tspan154">kward </tspan></text>
<text
         transform="rotate(-4.460218,1465.0307,-3047.8034)"
         style="font-variant:normal;font-weight:normal;font-size:9px;font-family:'Liberation Sans';-inkscape-font-specification:LiberationSans;writing-mode:lr-tb;fill:#808080;fill-opacity:1;fill-rule:nonzero;stroke:none"
         id="text160"><tspan
           x="0 2.493 5.4899998 10.493999 17.990999 19.989 22.482"
           y="0"
           sodipodi:role="line"
           id="tspan158">fromite</tspan></text>
<text
         transform="rotate(-1.5546889,3911.7057,-9864.9467)"
         style="font-variant:normal;font-weight:normal;font-size:9px;font-family:'Liberation Sans';-inkscape-font-specification:LiberationSans;writing-mode:lr-tb;fill:#808080;fill-opacity:1;fill-rule:nonzero;stroke:none"
         id="text164"><tspan
           x="0"
           y="0"
           id="tspan162">r</tspan></text>
<text
         transform="rotate(0.26815288,-21757.168,58188.611)"
         style="font-variant:normal;font-weight:normal;font-size:9px;font-family:'Liberation Sans';-inkscape-font-specification:LiberationSans;writing-mode:lr-tb;fill:#808080;fill-opacity:1;fill-rule:nonzero;stroke:none"
         id="text168"><tspan
           x="0 2.997 8.0009995 12.500999 17.504999 22.508999 24.533998 27.530998 30.023998 32.021999 37.025997 39.518997 44.522999 49.526997 56.024998 58.040997 63.890995 70.389 74.889 81.386993 86.390999 89.387993"
           y="0"
           sodipodi:role="line"
           id="tspan166">(pyobj) in new Awkward</tspan></text>
<text
         transform="rotate(1.251191,-5131.6666,11017.092)"
         style="font-variant:normal;font-weight:normal;font-size:9px;font-family:'Liberation Sans';-inkscape-font-specification:LiberationSans;writing-mode:lr-tb;fill:#808080;fill-opacity:1;fill-rule:nonzero;stroke:none"
         id="text172"><tspan
           x="0 2.493 5.4899998 10.493999 17.990999 19.989 22.482 27.486"
           y="0"
           sodipodi:role="line"
           id="tspan170">fromiter</tspan></text>
<text
         transform="rotate(0.66500247,-9803.4428,23325.13)"
         style="font-variant:normal;font-weight:normal;font-size:9px;font-family:'Liberation Sans';-inkscape-font-specification:LiberationSans;writing-mode:lr-tb;fill:#808080;fill-opacity:1;fill-rule:nonzero;stroke:none"
         id="text176"><tspan
           x="0"
           y="0"
           id="tspan174">(</tspan></text>
<text
         transform="rotate(0.62567028,-10429.827,25063.108)"
         style="font-variant:normal;font-weight:normal;font-size:9px;font-family:'Liberation Sans';-inkscape-font-specification:LiberationSans;writing-mode:lr-tb;fill:#808080;fill-opacity:1;fill-rule:nonzero;stroke:none"
         id="text180"><tspan
           x="0 4.5 10.493999 17.487 23.984999 26.981998 29.474998 31.473 36.476997 38.969997 43.973999 49.004997 55.502998 57.500996 63.350998 69.848999 74.348999 80.847 85.850998 88.848"
           y="0"
           sodipodi:role="line"
           id="tspan178">JSON) in new Awkward</tspan></text>
<text
         transform="rotate(14.728163,-176.93608,656.2709)"
         style="font-variant:normal;font-weight:bold;font-size:11px;font-family:'Nimbus Sans';-inkscape-font-specification:NimbusSanL-Bold;writing-mode:lr-tb;fill:#ff6600;fill-opacity:1;fill-rule:nonzero;stroke:none"
         id="text184"><tspan
           x="0 4.2789998"
           y="0"
           sodipodi:role="line"
           id="tspan182">re</tspan></text>
<text
         transform="rotate(8.6948519,-371.61797,1159.5438)"
         style="font-variant:normal;font-weight:bold;font-size:11px;font-family:'Nimbus Sans';-inkscape-font-specification:NimbusSanL-Bold;writing-mode:lr-tb;fill:#ff6600;fill-opacity:1;fill-rule:nonzero;stroke:none"
         id="text188"><tspan
           x="0"
           y="0"
           id="tspan186">a</tspan></text>
<text
         transform="rotate(2.4565799,-1546.3807,4165.0684)"
         style="font-variant:normal;font-weight:bold;font-size:11px;font-family:'Nimbus Sans';-inkscape-font-specification:NimbusSanL-Bold;writing-mode:lr-tb;fill:#ff6600;fill-opacity:1;fill-rule:nonzero;stroke:none"
         id="text192"><tspan
           x="0 6.7210002 9.7790003 16.5 23.221001 27.5 33.616001 39.732002 42.790001 46.452999 50.732002 57.452999 67.232002 70.290001 77.011002 83.732002"
           y="0"
           sodipodi:role="line"
           id="tspan190">d TTree from upr</tspan></text>
<text
         transform="rotate(4.1863314,-876.81618,3662.8499)"
         style="font-variant:normal;font-weight:bold;font-size:11px;font-family:'Nimbus Sans';-inkscape-font-specification:NimbusSanL-Bold;writing-mode:lr-tb;fill:#ff6600;fill-opacity:1;fill-rule:nonzero;stroke:none"
         id="text196"><tspan
           x="0"
           y="0"
           id="tspan194">o</tspan></text>
<text
         transform="rotate(10.127767,-283.77874,1570.4946)"
         style="font-variant:normal;font-weight:bold;font-size:11px;font-family:'Nimbus Sans';-inkscape-font-specification:NimbusSanL-Bold;writing-mode:lr-tb;fill:#ff6600;fill-opacity:1;fill-rule:nonzero;stroke:none"
         id="text200"><tspan
           x="0 6.7210002 10.384 13.442 19.866001 22.924 29.645 35.761002 44.319 47.376999 55.319 63.877003 69.993004 78.551003 84.667 88.945999"
           y="0"
           sodipodi:role="line"
           id="tspan198">ot + new Awkward</tspan></text>
<text
         transform="rotate(41.942737,-26.611289,277.11478)"
         style="font-variant:normal;font-weight:bold;font-size:11px;font-family:'Nimbus Sans';-inkscape-font-specification:NimbusSanL-Bold;writing-mode:lr-tb;fill:#008000;fill-opacity:1;fill-rule:nonzero;stroke:none"
         id="text204"><tspan
           x="0 4.2789998 10.395 16.511 23.232 26.289999 33.010998 39.731998 44.010998 50.126999 56.243 59.300999 62.996998 67.276001 73.997002 83.776001 86.834 93.555 100.276 104.555 111.276 117.99699 121.66"
           y="0"
           sodipodi:role="line"
           id="tspan202">read TTree from uproot </tspan></text>
<text
         transform="rotate(17.871316,-414.88543,947.03847)"
         style="font-variant:normal;font-weight:bold;font-size:11px;font-family:'Nimbus Sans';-inkscape-font-specification:NimbusSanL-Bold;writing-mode:lr-tb;fill:#008000;fill-opacity:1;fill-rule:nonzero;stroke:none"
         id="text208"><tspan
           x="0"
           y="0"
           id="tspan206">+</tspan></text>
<text
         transform="rotate(-0.40222592,24919.636,-39788.694)"
         style="font-variant:normal;font-weight:bold;font-size:11px;font-family:'Nimbus Sans';-inkscape-font-specification:NimbusSanL-Bold;writing-mode:lr-tb;fill:#008000;fill-opacity:1;fill-rule:nonzero;stroke:none"
         id="text212"><tspan
           x="0 6.7210002 9.7790003 16.5 19.558001 27.5 36.057999 42.174 50.731998 56.848 61.126999"
           y="0"
           sodipodi:role="line"
           id="tspan210">old Awkward</tspan></text>
<text
         transform="rotate(-9.6940804,248.73956,-942.55696)"
         style="font-variant:normal;font-weight:bold;font-size:11px;font-family:'Nimbus Sans';-inkscape-font-specification:NimbusSanL-Bold;writing-mode:lr-tb;fill:#aa00d4;fill-opacity:1;fill-rule:nonzero;stroke:none"
         id="text216"><tspan
           x="0 4.2460003"
           y="0"
           sodipodi:role="line"
           id="tspan214">re</tspan></text>
<text
         transform="rotate(0.2520241,-5935.5104,39221.664)"
         style="font-variant:normal;font-weight:bold;font-size:11px;font-family:'Nimbus Sans';-inkscape-font-specification:NimbusSanL-Bold;writing-mode:lr-tb;fill:#aa00d4;fill-opacity:1;fill-rule:nonzero;stroke:none"
         id="text220"><tspan
           x="0"
           y="0"
           id="tspan218">a</tspan></text>
<text
         transform="rotate(3.8378058,-309.26219,2678.4398)"
         style="font-variant:normal;font-weight:bold;font-size:11px;font-family:'Nimbus Sans';-inkscape-font-specification:NimbusSanL-Bold;writing-mode:lr-tb;fill:#aa00d4;fill-opacity:1;fill-rule:nonzero;stroke:none"
         id="text224"><tspan
           x="0 6.7210002 9.7790003 16.5 22.616001 31.174002 34.232002 42.174 50.732002 59.290001 66.011002 69.069 77.011002 84.953003"
           y="0"
           sodipodi:role="line"
           id="tspan222">d new ROOT RNT</tspan></text>
<text
         transform="rotate(7.8708001,-103.62124,1979.1587)"
         style="font-variant:normal;font-weight:bold;font-size:11px;font-family:'Nimbus Sans';-inkscape-font-specification:NimbusSanL-Bold;writing-mode:lr-tb;fill:#aa00d4;fill-opacity:1;fill-rule:nonzero;stroke:none"
         id="text228"><tspan
           x="0"
           y="0"
           id="tspan226">u</tspan></text>
<text
         transform="rotate(7.9924039,-103.28996,1997.3334)"
         style="font-variant:normal;font-weight:bold;font-size:11px;font-family:'Nimbus Sans';-inkscape-font-specification:NimbusSanL-Bold;writing-mode:lr-tb;fill:#aa00d4;fill-opacity:1;fill-rule:nonzero;stroke:none"
         id="text232"><tspan
           x="0 6.7210002 9.7790003 15.895 18.953001 22.011002 28.732 32.395 39.116001 42.174 50.116001 58.674004 64.790001 73.348 79.464005 83.743004"
           y="0"
           sodipodi:role="line"
           id="tspan230">ple into Awkward</tspan></text>
<text
         transform="rotate(-90,106.762,93.48149)"
         style="font-variant:normal;font-weight:normal;font-size:10px;font-family:'Liberation Sans';-inkscape-font-specification:LiberationSans;writing-mode:lr-tb;fill:#000000;fill-opacity:1;fill-rule:nonzero;stroke:none"
         id="text236"><tspan
           x="0 3.3299999 8.8900003 11.66 17.219999 19.99 22.209999 27.77 30.540001 38.869999 41.119999 43.34 45.560001 47.779999 53.34 58.900002 63.900002 66.669998 72.230003 75 77.769997 80.540001 82.760002 88.32 93.879997 96.650002 101.65 104.42 109.42 114.98 119.98"
           y="0"
           sodipodi:role="line"
           id="tspan234">rate in millions of floats/sec </tspan></text>
<text
         transform="rotate(-90,45.326457,32.045943)"
         style="font-variant:normal;font-weight:normal;font-size:10px;font-family:'Liberation Sans';-inkscape-font-specification:LiberationSans;writing-mode:lr-tb;fill:#ff0000;fill-opacity:1;fill-rule:nonzero;stroke:none"
         id="text240"><tspan
           x="0 3.3299999 8.8900003 11.11 16.67 22.26 27.82 31.15 33.919998 36.139999 41.139999 43.91 49.470001 55.029999 57.799999 60.57 66.129997 69.459999"
           y="0"
           sodipodi:role="line"
           id="tspan238">(higher is better)</tspan></text>
</g></g></svg>